<?xml version="1.0" encoding="UTF-8" standalone="no"?>
<!DOCTYPE svg PUBLIC "-//W3C//DTD SVG 1.1//EN" "http://www.w3.org/Graphics/SVG/1.1/DTD/svg11.dtd">
<svg width="100%" height="100%" viewBox="0 0 800 800" version="1.1" xmlns="http://www.w3.org/2000/svg" xmlns:xlink="http://www.w3.org/1999/xlink" xml:space="preserve" xmlns:serif="http://www.serif.com/" style="fill-rule:evenodd;clip-rule:evenodd;stroke-linejoin:round;stroke-miterlimit:2;">
    <g>
        <path d="M652.302,457.629C616.597,442.779 569.833,431.404 516.75,424.767C519.805,395.171 521.28,364.418 521.28,333.769C521.28,303.119 519.805,272.365 516.75,242.664C569.833,236.029 616.492,224.655 652.196,209.698C670.629,247.088 681.054,289.217 681.054,333.769C681.055,378.216 670.732,420.239 652.302,457.629ZM389.941,52.872C393.311,52.766 396.682,52.66 400.052,52.66C403.424,52.66 406.793,52.766 410.163,52.872C430.176,66.459 456.19,117.961 469.884,205.064C423.014,208.54 374.671,208.224 330.225,204.433C344.021,117.646 369.931,66.354 389.941,52.872ZM320.85,333.769C320.85,301.961 322.324,272.787 324.958,246.244C350.447,248.562 376.988,249.614 404.162,249.614C427.86,249.614 451.663,248.667 475.044,246.877C477.678,273.312 479.153,302.277 479.153,333.769C479.153,365.26 477.678,394.225 475.044,420.557C452.295,418.66 428.493,417.818 404.162,417.818C376.988,417.818 350.341,418.872 324.958,421.188C322.324,394.646 320.85,365.471 320.85,333.769ZM630.499,173.15C599.112,185.473 558.248,195.058 511.59,200.85C503.165,145.661 489.261,96.475 470.197,61.507C536.026,78.465 592.583,118.805 630.499,173.15ZM329.907,61.508C310.844,96.265 297.046,145.03 288.515,199.799C242.489,193.48 201.729,183.263 171.396,170.519C209.312,117.541 265.029,78.256 329.907,61.508ZM612.269,588.902C686.733,527.604 733.716,437.514 733.716,333.769C733.716,149.664 584.052,0 400.054,0C236.065,0 99.46,118.699 71.55,274.788C68.075,293.957 66.284,313.652 66.284,333.769C66.284,517.878 164.203,662.259 352.99,716.677L352.99,800L631.276,639.297L352.99,478.624L352.99,557.548C200.689,557.548 119.484,434.055 119.484,316.851C120.328,302.502 122.207,288.422 125.159,274.788C130.32,250.88 138.43,228.131 149.383,206.961C184.14,222.443 230.376,234.45 283.354,241.612C280.195,271.629 278.72,302.699 278.72,333.77C278.72,364.735 280.195,395.805 283.354,425.824C251.125,430.141 221.425,436.356 195.2,444.043C196.779,445.94 198.149,447.834 199.624,449.731C204.258,455.63 208.576,461.316 213.105,465.635L214.158,466.583L215.106,467.742C218.476,471.532 222.584,475.221 227.112,479.012C245.966,474.482 266.608,470.586 288.516,467.637C291.465,486.386 294.941,504.395 299.048,521.352L299.153,521.352C305.999,523.459 311.898,525.25 316.11,525.461L317.374,525.461C317.374,525.461 320.429,525.776 321.376,525.882L321.376,423.929L384.255,460.161C390.89,460.056 397.525,459.952 404.161,459.952C426.699,459.952 448.818,460.793 469.882,462.374C467.459,477.646 464.722,491.864 461.667,504.924L499.583,526.831C504.323,507.978 508.43,487.651 511.591,466.586C558.353,472.379 599.22,481.963 630.605,494.285C611.963,520.932 588.898,544.208 562.357,563.061L612.269,588.902Z" style="fill-rule:nonzero;"/>
        <g transform="matrix(0.00236204,1.09601,-1.25713,0.00270928,1218.34,-14.1302)">
            <path d="M593.6,461.415L741.679,691.769L445.522,691.769L593.6,461.415Z" style="fill:rgb(228,15,15);"/>
        </g>
    </g>
</svg>
